# xmcd
#
# Track frame offsets: 
#        150
#        12413
#        27545
#        45687
#        62525
#        76925
#        95316
#        112305
#        127778
#        142526
#        162636
#        180057
#        193480
#        212921
#        228015
#        241421
#        259609
#        275587
#        290439
#        306494
#
# Disc length: 4306 seconds
#
# Revision: 2
# Processed by: cddbd v1.5.2PL0 Copyright (c) Steve Scherf et al.
# Submitted via: ExactAudioCopyFreeDBPlugin 1.0
#
DISCID=1810d014
DTITLE=Ярослав Евдокимов - Grand Collection
DYEAR=2003
DGENRE=Pop
TTITLE0=За Дунаем
TTITLE1=Стоп душа
TTITLE2=За друзей
TTITLE3=Солнышко
TTITLE4=Слёзы капают
TTITLE5=Куст калины
TTITLE6=Белые лилии
TTITLE7=Туман
TTITLE8=Кафе у моря
TTITLE9=Целую твою ладонь
TTITLE10=Фантазёр
TTITLE11=Наливай
TTITLE12=Только ночь
TTITLE13=Хорошо
TTITLE14=Полина
TTITLE15=Огни вокзала
TTITLE16=Между двух огней
TTITLE17=Роза
TTITLE18=Последний поезд
TTITLE19=Майский вальс
EXTD=
EXTT0=
EXTT1=
EXTT2=
EXTT3=
EXTT4=
EXTT5=
EXTT6=
EXTT7=
EXTT8=
EXTT9=
EXTT10=
EXTT11=
EXTT12=
EXTT13=
EXTT14=
EXTT15=
EXTT16=
EXTT17=
EXTT18=
EXTT19=
PLAYORDER=
